<?xml version="1.0" encoding="UTF-8"?>
<svg id="Layer_1" xmlns="http://www.w3.org/2000/svg" version="1.1" viewBox="0 0 128 128">
  <!-- Generator: Adobe Illustrator 30.1.0, SVG Export Plug-In . SVG Version: 2.1.1 Build 136)  -->
  <defs>
    <style>
      .st0 {
        opacity: .95;
      }

      .st0, .st1 {
        isolation: isolate;
      }

      .st1 {
        opacity: .92;
      }
    </style>
  </defs>
  <g class="st0">
    <path d="M11.86,77.21c-1.27.01-2.55-.27-3.76-.89-3.95-2.03-5.5-6.88-3.47-10.84C21.7,32.33,52.47,9.27,89.07,2.21c4.37-.83,8.58,2.01,9.43,6.37.84,4.36-2.01,8.58-6.37,9.43-31.72,6.12-58.39,26.1-73.18,54.82-1.41,2.75-4.18,4.33-7.07,4.36h0Z"/>
  </g>
  <path class="st1" d="M100.38,21.14c-33.5,6.44-62.19,27.9-77.82,58.21l101.69,44.94-23.86-103.16h0ZM85.55,32.74c7.8-.08,14.18,6.18,14.26,13.98.08,7.8-6.18,14.18-13.98,14.26-7.8.08-14.18-6.18-14.26-13.98-.08-7.8,6.18-14.18,13.98-14.26ZM64.38,90.73c-7.8.08-14.18-6.18-14.26-13.98s6.18-14.18,13.98-14.26,14.18,6.18,14.26,13.98-6.18,14.18-13.98,14.26ZM99.29,106.41c-7.8.08-14.18-6.18-14.26-13.98-.08-7.8,6.18-14.18,13.98-14.26,7.8-.08,14.18,6.18,14.26,13.98.08,7.8-6.18,14.18-13.98,14.26Z"/>
</svg>